HIERARCHY
ROOT Hips
{
  OFFSET -125.086 92.215 135.881
  CHANNELS 6 Xposition Yposition Zposition Zrotation Xrotation Yrotation
  JOINT LeftUpLeg
  {
    OFFSET 8.64259 1.95398 -2.38835
    CHANNELS 3 Zrotation Xrotation Yrotation
    JOINT LeftLeg
    {
      OFFSET 43.7702 0 0
      CHANNELS 3 Zrotation Xrotation Yrotation
      JOINT LeftFoot
      {
        OFFSET 40.6238 0 0
        CHANNELS 3 Zrotation Xrotation Yrotation
        JOINT LeftToeBase
        {
          OFFSET 12.7242 0 0
          CHANNELS 3 Zrotation Xrotation Yrotation
          End Site
          {
            OFFSET 0 0 0
          }
        }
      }
    }
  }
  JOINT RightUpLeg
  {
    OFFSET -8.2249 1.95398 -2.59336
    CHANNELS 3 Zrotation Xrotation Yrotation
    JOINT RightLeg
    {
      OFFSET 43.5653 0 0
      CHANNELS 3 Zrotation Xrotation Yrotation
      JOINT RightFoot
      {
        OFFSET 40.6238 0 0
        CHANNELS 3 Zrotation Xrotation Yrotation
        JOINT RightToeBase
        {
          OFFSET 12.7242 0 0
          CHANNELS 3 Zrotation Xrotation Yrotation
          End Site
          {
            OFFSET 0 0 0
          }
        }
      }
    }
  }
  JOINT Spine
  {
    OFFSET 0.165834 0.87714 6.61349
    CHANNELS 3 Zrotation Xrotation Yrotation
    JOINT Spine1
    {
      OFFSET 7.38963 1.71661e-005 0
      CHANNELS 3 Zrotation Xrotation Yrotation
      JOINT Spine2
      {
        OFFSET 11.9445 1.14441e-005 0
        CHANNELS 3 Zrotation Xrotation Yrotation
        JOINT Spine3
        {
          OFFSET 14.7254 4.19617e-005 0
          CHANNELS 3 Zrotation Xrotation Yrotation
          JOINT Spine4
          {
            OFFSET 10.9679 0 0
            CHANNELS 3 Zrotation Xrotation Yrotation
            JOINT RightShoulder
            {
              OFFSET 2.46616 -1.6653 3.69651
              CHANNELS 3 Zrotation Xrotation Yrotation
              JOINT RightArm
              {
                OFFSET 13.0012 0 0
                CHANNELS 3 Zrotation Xrotation Yrotation
                JOINT RightForeArm
                {
                  OFFSET 28.7848 1.52588e-005 0
                  CHANNELS 3 Zrotation Xrotation Yrotation
                  JOINT RightHand
                  {
                    OFFSET 26.5688 1.52588e-005 0
                    CHANNELS 3 Zrotation Xrotation Yrotation
                    End Site
                    {
                      OFFSET 0 0 0
                    }
                  }
                }
              }
            }
            JOINT LeftShoulder
            {
              OFFSET 2.38034 -1.29275 -3.7523
              CHANNELS 3 Zrotation Xrotation Yrotation
              JOINT LeftArm
              {
                OFFSET 16.3182 6.10352e-005 0
                CHANNELS 3 Zrotation Xrotation Yrotation
                JOINT LeftForeArm
                {
                  OFFSET 27.0901 0 0
                  CHANNELS 3 Zrotation Xrotation Yrotation
                  JOINT LeftHand
                  {
                    OFFSET 24.5451 1.52588e-005 0
                    CHANNELS 3 Zrotation Xrotation Yrotation
                    End Site
                    {
                      OFFSET 0 0 0
                    }
                  }
                }
              }
            }
            JOINT Neck
            {
              OFFSET 5.0226 -0.0266342 0
              CHANNELS 3 Zrotation Xrotation Yrotation
              JOINT Head
              {
                OFFSET 6.69363 2.86102e-005 0
                CHANNELS 3 Zrotation Xrotation Yrotation
                End Site
                {
                  OFFSET 0 0 0
                }
              }
            }
          }
        }
      }
    }
  }
}
MOTION
Frames:	9
Frame Time:	0.0416667
12.1814 74.4089 -296.815 -35.7934 45.2775 15.2202 47.4094 -6.15577 -109.726 -100.42 1.27547 12.5066 90.6765 -46.6001 46.1024 77.9783 -4.46623 -0.56063 26.9111 -10.8172 -78.1161 -108.955 48.7408 -1.95403 157.556 -20.2255 73.7254 66.2383 22.7922 102.714 1.40737 -12.8538 -88.6483 52.5999 3.30199 0.782115 40.933 3.3332 0.635883 18.3721 2.91418 1.73906 38.3847 2.91419 1.73905 171.061 -68.5274 -0.621109 -23.4715 -23.4862 -29.0971 -126.992 25.9567 179.983 38.4192 15.4805 36.9322 -106.806 -33.8662 45.328 34.7346 7.66053 85.7697 98.3494 51.7298 -130.433 33.3856 -1.24054 -7.93386 -64.6487 4.4372 -32.5222 -170.781 7.03978 -8.20874 
12.1357 74.2517 -297.936 -36.7511 46.1037 15.4577 48.6084 -6.48844 -109.448 -101.08 0.658331 12.4435 90.9262 -48.1334 46.4079 79.292 -3.84501 1.64772 27.8429 -10.9862 -77.087 -109.128 51.8377 -2.65468 161.397 -19.506 75.2548 70.7798 24.3329 96.6711 1.48675 -12.935 -88.6712 52.7672 3.40684 0.641405 41.1007 3.43177 0.490658 18.5365 3.05645 1.6365 38.5492 3.05645 1.63651 172.736 -68.5322 1.14526 -24.8036 -23.3114 -29.9475 -126.59 27.0437 179.983 38.7715 15.8625 37.5059 -106.732 -33.6662 45.3212 33.9748 7.3784 85.8574 95.6529 51.9129 -128.25 31.0674 -1.40384 -8.74886 -64.5893 4.06416 -32.5527 -170.348 6.51048 -8.19612 
12.0231 73.7607 -301.204 -39.42 48.4002 16.3191 51.6998 -7.42061 -108.442 -103.104 -0.615024 12.1041 91.4574 -52.1468 47.1412 82.612 -1.79857 7.88273 30.2671 -11.2842 -74.3576 -109.306 58.7661 -4.85296 171.821 -19.2808 77.6089 84.3045 25.8702 78.8037 1.68611 -13.1546 -88.7259 53.2204 3.66976 0.289507 41.5547 3.67895 0.127494 18.9825 3.4129 1.3803 38.9951 3.4129 1.38031 177.567 -68.4695 6.22276 -28.5668 -22.6469 -32.2996 -125.567 30.2425 179.982 39.7553 16.9368 39.0626 -106.514 -33.0856 45.3085 31.7973 6.54777 86.0642 88.1276 52.0167 -122.208 25.0065 -1.62806 -10.6943 -64.4558 2.92146 -32.6326 -169.117 4.92415 -8.105 
11.8958 72.8938 -306.492 -43.3814 51.737 18.1332 55.5789 -8.6832 -106.153 -106.075 -2.2299 11.1242 89.4214 -57.1482 45.2589 86.4132 1.93972 17.2066 33.2948 -11.2168 -70.767 -108.844 65.7457 -8.73858 -173.608 -23.4865 77.9818 102.416 20.6784 53.2808 2.27795 -16.2379 -88.4332 59.4236 4.52718 0.0257128 47.762 4.52392 -0.174033 25.1587 4.30947 1.38798 45.1714 4.30947 1.38798 -174.841 -68.1423 14.1505 -34.2574 -21.1239 -35.6976 -124.377 35.4401 179.981 41.2262 18.5637 41.2615 -106.149 -32.1462 45.3042 28.3915 5.1835 86.2354 77.2349 51.1134 -113.684 17.1477 -1.50541 -12.6048 -64.393 0.85424 -32.7415 -167.204 2.17475 -7.75797 
11.797 71.6555 -313.663 -48.291 55.6068 21.1768 59.0913 -10.0095 -101.748 -110.322 0.964982 9.13515 88.1647 -61.0286 45.1145 89.0054 7.16501 28.5783 35.9155 -10.2616 -67.1973 -105.611 72.9038 -15.8478 -158.701 -32.9821 75.9731 116.368 8.10053 30.0177 -1.84064 25.9726 -90.5214 -25.1406 -3.45021 -2.36227 -36.8089 -3.55081 -2.20806 -59.3497 -2.58112 -3.28979 -39.3371 -2.58111 -3.28979 -165.153 -67.2991 24.1757 -41.1955 -18.3387 -39.5361 -123.59 42.2485 179.979 43.0219 20.5776 43.7426 -105.633 -30.8546 45.3206 23.9807 3.31367 86.134 65.138 48.5063 -104.755 9.36753 -1.01432 -13.3372 -64.7122 -2.53936 -32.8755 -164.695 -2.07661 -6.78523 
11.7465 70.1159 -322.553 -54.1825 59.6443 25.7133 61.2747 -11.1679 -94.224 -114.124 3.5716 6.13011 74.1127 -60.457 31.6276 89.1418 13.2506 41.8056 37.3824 -8.10954 -64.167 -69.7091 83.3087 -55.1965 -151.292 -44.2556 67.6805 124.869 -6.46744 12.5079 -1.89999 25.638 -90.5073 -24.4738 -3.57349 -2.34818 -36.1417 -3.67334 -2.18855 -58.6848 -2.70293 -3.31345 -38.6722 -2.70291 -3.31345 -154.36 -65.7211 35.2162 -48.6527 -14.0623 -43.2349 -123.693 49.8045 179.976 44.9894 22.8112 46.2252 -104.959 -29.2067 45.3677 18.8005 1.02966 85.5349 53.8398 44.1599 -97.3152 2.77133 -0.452876 -12.3666 -66.0557 -8.10565 -33.1207 -161.494 -8.58971 -4.44288 
11.6519 68.384 -332.887 -61.9087 62.8979 31.1431 61.7217 -10.0578 -84.7219 -117.547 7.33023 3.55038 57.8746 -53.624 16.3565 85.7067 19.101 57.3326 36.3249 -4.04984 -61.108 25.7332 78.4369 -152.641 -163.042 -56.855 46.8686 131.593 -19.9753 -0.125923 -2.136 25.3745 -90.4758 -23.9547 -4.01706 -2.42487 -35.62 -4.1199 -2.24556 -58.1804 -3.10247 -3.52016 -38.1678 -3.10247 -3.52015 -143.56 -63.3117 46.0951 -56.0153 -8.29835 -46.4182 -124.953 56.901 179.972 46.9973 25.1144 48.5284 -104.12 -27.1983 45.4548 13.0934 -1.60234 84.2274 44.3561 38.6173 -92.2341 -2.19452 -0.100619 -9.80247 -70.0276 -17.7426 -33.989 -156.749 -19.061 1.17426 
13.0553 66.1427 -345.145 -80.1895 73.1789 67.0728 49.3711 -29.4103 -84.9408 -116.67 1.10407 7.99253 38.9633 -43.4347 0.449915 79.2297 22.3977 72.693 48.7087 -8.63403 -67.1123 20.4763 50.6792 -150.079 140.44 -61.4232 -6.99281 141.185 -31.8072 -7.34371 1.41026 24.5067 -91.985 -22.148 2.27885 -2.98638 -33.8239 2.14546 -3.08365 -56.3327 3.06991 -2.16435 -36.32 3.0699 -2.16434 -133.642 -60.1213 55.8874 -62.8567 -1.22566 -49.0188 -127.404 62.4372 179.967 48.9404 27.363 50.5601 -103.115 -24.8411 45.5909 7.11547 -4.40077 82.0372 36.7673 32.6344 -89.4049 -5.44717 -0.0452217 -6.11176 -81.0966 -34.47 -38.4466 -146.388 -35.7461 15.7703 
13.4749 64.0533 -356.884 -85.1448 76.4522 74.3826 43.9965 -26.3761 -82.4288 -117.231 -3.66922 4.18941 35.3131 -30.9552 -7.88839 74.6714 22.8605 81.2657 37.6689 -4.44618 -70.7698 24.5937 53.9854 -154.847 92.4342 -44.601 -42.3674 158.75 -40.7435 -6.20622 2.00556 24.5721 -92.8398 -22.2605 3.23711 -4.26475 -33.9348 3.04648 -4.40284 -56.469 4.36856 -3.09549 -36.4564 4.36856 -3.09547 -125.179 -56.293 64.0676 -68.8459 6.90862 -51.338 -130.963 65.7941 179.962 50.7507 29.4704 52.2946 -101.959 -22.18 45.7852 1.11751 -7.12158 78.9229 30.7208 26.8607 -88.2745 -7.10008 -0.195682 -1.82297 -105.437 -52.4229 -55.1482 -121.367 -50.3919 46.954 
